<svg xmlns="http://www.w3.org/2000/svg" width="20.75" height="23.812"><path d="M17.76 15.011a2.348 2.348 0 00-1.59-.98 2.433 2.433 0 00-1.81.562l-1.77 1.377c-.12-.088-.25-.17-.36-.248-.17-.113-.33-.217-.47-.328a17.2 17.2 0 01-3.65-4.241 9.939 9.939 0 01-1.09-2.288c.45-.323.88-.665 1.3-1 .15-.12.31-.25.47-.372a2.3 2.3 0 00.43-3.447l-1.2-1.529c-.14-.172-.28-.35-.41-.529-.26-.348-.54-.7-.83-1.044A2.358 2.358 0 005.2.005 2.507 2.507 0 003.4.53l-.01.009-1.91 1.5A3.649 3.649 0 00.11 4.222a8.8 8.8 0 00.18 3.779 21.767 21.767 0 003.05 6.826 23.628 23.628 0 007.09 7.077 12.293 12.293 0 004.24 1.834c.11.015.22.035.32.046a3.808 3.808 0 003.04-.881.055.055 0 01.02-.024 10.731 10.731 0 01.99-.793 27 27 0 00.73-.564 2.5 2.5 0 00.96-1.633 2.369 2.369 0 00-.56-1.805zm1.15 5.469c-.01 0-.01 0 0 0-.22.183-.45.352-.69.535a12.561 12.561 0 00-1.08.876 2.442 2.442 0 01-1.98.565c-.08-.011-.16-.02-.23-.034a10.884 10.884 0 01-3.76-1.645 22.259 22.259 0 01-6.68-6.664 20.564 20.564 0 01-2.87-6.417 7.135 7.135 0 01-.17-3.19 2.277 2.277 0 01.87-1.4l1.92-1.489a1.15 1.15 0 01.8-.262 1.079 1.079 0 01.69.44.165.165 0 01.01.019c.27.317.53.648.79 1 .14.179.28.357.42.543l1.2 1.524a.96.96 0 01-.19 1.543c-.17.131-.32.259-.49.38-.47.375-.92.727-1.4 1.063a.166.166 0 00-.03.019 1.022 1.022 0 00-.4 1.1c0 .019.01.033.01.046a11.016 11.016 0 001.29 2.824h.01a18.321 18.321 0 003.94 4.575 6.228 6.228 0 00.58.409 5.557 5.557 0 01.46.325.711.711 0 00.06.041 1.023 1.023 0 001.28-.065l1.92-1.5a1.172 1.172 0 01.8-.284 1.061 1.061 0 01.68.456l.01.007 2.42 3.087a1 1 0 01-.19 1.573z" fill="#e87845" fill-rule="evenodd"/></svg>