<svg xmlns="http://www.w3.org/2000/svg" width="19" height="23"><path d="M9.42 12.4h.15a4.236 4.236 0 003.26-1.455c1.77-2.069 1.48-5.613 1.45-5.95A4.9 4.9 0 0012.04.677 5.087 5.087 0 009.55.003h-.08a5.054 5.054 0 00-2.49.654 4.9 4.9 0 00-2.27 4.338c-.03.337-.32 3.881 1.46 5.95A4.2 4.2 0 009.42 12.4zM5.95 5.115v-.039c.16-3.412 2.51-3.78 3.52-3.78h.05c1.25.027 3.37.55 3.51 3.78a.054.054 0 00.01.039c0 .032.33 3.273-1.14 4.975a3 3 0 01-2.38 1.023h-.05a2.984 2.984 0 01-2.38-1.023c-1.46-1.7-1.15-4.954-1.14-4.98zm13.04 13.162v-.136c-.03-.944-.09-3.147-2.1-3.853a.107.107 0 01-.04-.014 13.248 13.248 0 01-3.84-1.8.613.613 0 00-.87.156.652.652 0 00.15.893 14.216 14.216 0 004.22 1.987c1.08.4 1.2 1.584 1.23 2.67a.471.471 0 00.01.119 9.9 9.9 0 01-.1 1.47 17.969 17.969 0 01-16.3 0 8.734 8.734 0 01-.1-1.471c0-.036.01-.074.01-.12.03-1.084.15-2.27 1.23-2.666a14.372 14.372 0 004.22-1.988.65.65 0 00.15-.891.61.61 0 00-.87-.159 13.079 13.079 0 01-3.84 1.8l-.04.013C.1 14.998.04 17.201.01 18.141v.136a7.184 7.184 0 00.24 2.155.538.538 0 00.24.3 19 19 0 0018.04 0 .638.638 0 00.24-.3 7.7 7.7 0 00.22-2.16z" fill="#e87845" fill-rule="evenodd"/></svg>